<svg width="16" height="16" viewBox="0 0 16 16" fill="none" xmlns="http://www.w3.org/2000/svg">
<g id="Frame">
<path id="Vector" d="M8.00001 2.15995C11.224 2.15995 13.84 4.77595 13.84 7.99995C13.84 11.224 11.224 13.84 8.00001 13.84C4.77601 13.84 2.16001 11.224 2.16001 7.99995C2.16001 4.77595 4.77601 2.15995 8.00001 2.15995ZM8.00001 1.19995C4.24801 1.19995 1.20001 4.24795 1.20001 7.99995C1.20001 11.752 4.24801 14.8 8.00001 14.8C11.752 14.8 14.8 11.752 14.8 7.99995C14.8 4.24795 11.752 1.19995 8.00001 1.19995Z" fill="#8A9CE8"/>
<path id="Vector_2" d="M8.00001 1.17603C4.24801 1.17603 1.20001 4.22403 1.20001 7.97603C1.20001 11.728 4.24801 14.776 8.00001 14.776C11.752 14.776 14.8 11.728 14.8 7.97603C14.8 4.22403 11.752 1.17603 8.00001 1.17603ZM10.808 9.06403H7.52001V4.28003C7.52001 4.01603 7.73601 3.80003 8.00001 3.80003C8.26401 3.80003 8.48001 4.01603 8.48001 4.28003V8.10403H10.808C11.072 8.10403 11.288 8.32002 11.288 8.58402C11.288 8.84802 11.072 9.06403 10.808 9.06403Z" fill="#8A9CE8"/>
</g>
</svg>
